<?xml version="1.0" encoding="utf-8"?>
<!-- Generator: Adobe Illustrator 16.0.0, SVG Export Plug-In . SVG Version: 6.00 Build 0)  -->
<!DOCTYPE svg PUBLIC "-//W3C//DTD SVG 1.1//EN" "http://www.w3.org/Graphics/SVG/1.1/DTD/svg11.dtd">
<svg version="1.1" id="Layer_1" xmlns="http://www.w3.org/2000/svg" xmlns:xlink="http://www.w3.org/1999/xlink" x="0px" y="0px"
	 width="595.279px" height="841.89px" viewBox="0 0 595.279 841.89" enable-background="new 0 0 595.279 841.89"
	 xml:space="preserve">
<g id="work">
	<g>
		<g>
			<g>
				<g>
					<path fill="#202020" d="M25.978,70.737c3.004,0.748,5.044,1.152,8.64,1.17c45.549,0,273.677,0,273.677,0s210.366,0,252.37,0
						c3.598-0.018,5.638-0.422,8.642-1.17c-3.004-0.748-5.044-1.152-8.642-1.17c-42.004,0-252.37,0-252.37,0s-228.127,0-273.677,0
						C31.022,69.585,28.982,69.989,25.978,70.737z"/>
				</g>
			</g>
		</g>
		<g>
			<g>
				<g>
					<path fill="#202020" d="M569.304,349.387c-3.004-0.748-5.044-1.152-8.642-1.169c-45.55,0-273.675,0-273.675,0
						s-210.368,0-252.372,0c-3.596,0.018-5.636,0.421-8.64,1.169c3.004,0.747,5.044,1.151,8.64,1.17c42.003,0,252.372,0,252.372,0
						s228.125,0,273.675,0C564.26,350.538,566.302,350.134,569.304,349.387z"/>
				</g>
			</g>
		</g>
		<g>
			<g>
				<g>
					<path fill="#202020" d="M569.304,349.387c-2.332-2.036-3.963-3.327-7.153-4.984c-18.312-9.391-110.034-56.43-110.034-56.43
						s-85.39-43.793-102.438-52.537c-3.208-1.625-5.207-2.196-8.224-2.902c2.332,2.036,3.964,3.327,7.154,4.984
						c17.049,8.744,102.439,52.538,102.439,52.538s91.72,47.039,110.031,56.431C564.29,348.11,566.289,348.681,569.304,349.387z"/>
				</g>
			</g>
		</g>
		<g>
			<g>
				<g>
					<path fill="#202020" d="M253.824,187.591c-2.332-2.036-3.962-3.327-7.154-4.984c-18.312-9.392-110.03-56.432-110.03-56.432
						S51.249,82.382,34.199,73.639c-3.208-1.625-5.208-2.196-8.222-2.902c2.332,2.036,3.962,3.327,7.152,4.984
						c17.052,8.744,102.439,52.537,102.439,52.537s91.719,47.039,110.032,56.432C248.811,186.314,250.81,186.885,253.824,187.591z"
						/>
				</g>
			</g>
		</g>
		<g>
			<g>
				<g>
					<path fill="#202020" d="M25.978,349.387c0.748-3.003,1.15-5.043,1.17-8.639c0-22.543,0-135.454,0-135.454s0-104.96,0-125.917
						c-0.02-3.596-0.422-5.636-1.17-8.64c-0.748,3.004-1.152,5.044-1.17,8.64c0,20.957,0,125.917,0,125.917s0,112.91,0,135.454
						C24.826,344.343,25.23,346.383,25.978,349.387z"/>
				</g>
			</g>
		</g>
		<g>
			<g>
				<g>
					<path fill="#202020" d="M253.827,232.534c-3.015,0.706-5.014,1.277-8.222,2.901c-18.313,9.393-110.033,56.432-110.033,56.432
						s-85.39,43.792-102.439,52.536c-3.189,1.657-4.82,2.948-7.152,4.984c3.014-0.706,5.014-1.276,8.222-2.901
						c17.05-8.744,102.439-52.536,102.439-52.536s91.72-47.04,110.031-56.432C249.865,235.86,251.495,234.57,253.827,232.534z"/>
				</g>
			</g>
		</g>
		<g>
			<g>
				<g>
					<path fill="#202020" d="M569.304,70.737c-3.017,0.706-5.016,1.277-8.222,2.901c-18.313,9.393-110.032,56.432-110.032,56.432
						s-85.391,43.793-102.438,52.537c-3.19,1.657-4.821,2.948-7.153,4.984c3.015-0.706,5.015-1.277,8.223-2.902
						c17.05-8.744,102.438-52.537,102.438-52.537S543.84,85.113,562.151,75.72C565.343,74.063,566.972,72.773,569.304,70.737z"/>
				</g>
			</g>
		</g>
		<g>
			<g>
				<g>
					<path fill="#202020" d="M569.304,70.737c-0.748,3.004-1.152,5.044-1.17,8.64c0,22.545,0,135.455,0,135.455s0,104.96,0,125.916
						c0.018,3.596,0.422,5.636,1.17,8.639c0.747-3.003,1.149-5.043,1.17-8.639c0-20.956,0-125.916,0-125.916s0-112.91,0-135.455
						C570.455,75.781,570.052,73.741,569.304,70.737z"/>
				</g>
			</g>
		</g>
		<text transform="matrix(1 0 0 1 208.6589 220.0601)" font-family="'ComicSansMS'" font-size="30">WORK PAGE</text>
	</g>
	<g id="home_4_">
		<g>
			<polyline points="106.876,58.074 25.978,58.074 25.978,27.737 106.876,27.737 			"/>
		</g>
		<g>
			<line fill="none" x1="106.876" y1="58.074" x2="25.978" y2="58.074"/>
			<g>
				<g>
					<path fill="#202020" d="M106.876,58.074c-3.004-0.748-5.044-1.152-8.64-1.17c-0.609-0.001-1.603-0.003-3.66-0.007
						c-8.466,0.002-28.521,0.007-28.521,0.007s-16.788-0.005-26.097-0.008c-2.75,0.004-4.451,0.007-5.34,0.008
						c-3.596,0.018-5.636,0.422-8.64,1.17c3.004,0.748,5.044,1.152,8.64,1.17c0.889,0.001,2.59,0.004,5.34,0.008
						c9.309-0.003,26.097-0.008,26.097-0.008s20.057,0.005,28.521,0.007c2.062-0.004,3.051-0.005,3.66-0.007
						C101.832,59.226,103.872,58.821,106.876,58.074z"/>
				</g>
			</g>
		</g>
		<g>
			<line fill="none" x1="25.978" y1="27.737" x2="106.876" y2="27.737"/>
			<g>
				<g>
					<path fill="#202020" d="M25.978,27.737c3.004,0.748,5.044,1.152,8.64,1.17c0.609,0.001,1.603,0.003,3.66,0.007
						c8.466-0.002,28.521-0.007,28.521-0.007s16.788,0.005,26.097,0.008c2.75-0.004,4.451-0.007,5.34-0.008
						c3.596-0.018,5.636-0.422,8.64-1.17c-3.004-0.748-5.044-1.152-8.64-1.17c-0.889-0.001-2.59-0.004-5.34-0.008
						C83.588,26.562,66.8,26.567,66.8,26.567s-20.057-0.005-28.521-0.007c-2.062,0.004-3.051,0.005-3.66,0.007
						C31.022,26.585,28.982,26.989,25.978,27.737z"/>
				</g>
			</g>
		</g>
		<g>
			<line fill="none" x1="25.978" y1="58.074" x2="25.978" y2="27.737"/>
			<g>
				<g>
					<path fill="#202020" d="M25.978,58.074c0.748-3.004,1.15-5.044,1.17-8.64c0.001-0.61,0.003-1.601,0.007-3.66
						c-0.002-0.629-0.007-2.119-0.007-2.119s0.005-1.247,0.008-1.938c-0.004-2.75-0.007-4.451-0.008-5.34
						c-0.02-3.596-0.422-5.636-1.17-8.64c-0.748,3.004-1.152,5.044-1.17,8.64c-0.001,0.889-0.004,2.59-0.01,5.34
						c0.005,0.691,0.01,1.938,0.01,1.938s-0.005,1.49-0.009,2.119c0.006,2.06,0.007,3.05,0.009,3.66
						C24.826,53.03,25.23,55.069,25.978,58.074z"/>
				</g>
			</g>
		</g>
		<g>
			<line fill="none" x1="106.876" y1="27.737" x2="106.876" y2="58.074"/>
			<g>
				<g>
					<path fill="#202020" d="M106.876,27.737c-0.748,3.004-1.15,5.044-1.17,8.64c-0.001,0.61-0.003,1.601-0.007,3.66
						c0.002,0.629,0.007,2.119,0.007,2.119s-0.005,1.247-0.008,1.938c0.004,2.75,0.007,4.451,0.008,5.34
						c0.02,3.596,0.422,5.636,1.17,8.64c0.748-3.004,1.152-5.044,1.17-8.64c0.001-0.889,0.004-2.59,0.01-5.34
						c-0.005-0.691-0.01-1.938-0.01-1.938s0.005-1.49,0.009-2.119c-0.006-2.06-0.007-3.05-0.009-3.66
						C108.028,32.781,107.624,30.741,106.876,27.737z"/>
				</g>
			</g>
		</g>
		<text transform="matrix(1 0 0 1 43.3752 47.3062)" fill="#FFFFFF" font-family="'ComicSansMS-Bold'" font-size="15">HOME</text>
	</g>
	<g id="about_1_">
		<g>
			<rect x="114.504" y="27.737" width="80.897" height="30.337"/>
		</g>
		<g>
			<line fill="none" x1="195.402" y1="27.737" x2="195.402" y2="58.074"/>
			<g>
				<g>
					<path fill="#202020" d="M195.402,27.737c-0.748,3.004-1.152,5.044-1.17,8.64c-0.001,0.61-0.003,1.601-0.007,3.66
						c0.002,0.629,0.007,2.119,0.007,2.119s-0.005,1.247-0.008,1.938c0.004,2.75,0.007,4.451,0.008,5.34
						c0.018,3.596,0.422,5.636,1.17,8.64c0.748-3.004,1.152-5.044,1.17-8.64c0.001-0.889,0.004-2.59,0.008-5.34
						c-0.003-0.691-0.008-1.938-0.008-1.938s0.005-1.49,0.007-2.119c-0.004-2.06-0.005-3.05-0.007-3.66
						C196.553,32.781,196.149,30.741,195.402,27.737z"/>
				</g>
			</g>
		</g>
		<g>
			<line fill="none" x1="195.402" y1="58.074" x2="114.504" y2="58.074"/>
			<g>
				<g>
					<path fill="#202020" d="M195.402,58.074c-3.004-0.748-5.044-1.152-8.64-1.17c-0.609-0.001-1.603-0.003-3.66-0.007
						c-8.466,0.002-28.523,0.007-28.523,0.007s-16.788-0.005-26.095-0.008c-2.75,0.004-4.451,0.007-5.34,0.008
						c-3.598,0.018-5.638,0.422-8.642,1.17c3.004,0.748,5.044,1.152,8.642,1.17c0.889,0.001,2.59,0.004,5.34,0.008
						c9.307-0.003,26.095-0.008,26.095-0.008s20.059,0.005,28.523,0.007c2.06-0.004,3.051-0.005,3.66-0.007
						C190.358,59.226,192.397,58.821,195.402,58.074z"/>
				</g>
			</g>
		</g>
		<g>
			<line fill="none" x1="114.504" y1="58.074" x2="114.504" y2="27.737"/>
			<g>
				<g>
					<path fill="#202020" d="M114.504,58.074c0.748-3.004,1.152-5.044,1.17-8.64c0.001-0.61,0.003-1.601,0.009-3.66
						c-0.002-0.629-0.009-2.119-0.009-2.119s0.007-1.247,0.01-1.938c-0.004-2.75-0.009-4.451-0.01-5.34
						c-0.018-3.596-0.422-5.636-1.17-8.64c-0.748,3.004-1.15,5.044-1.17,8.64c-0.001,0.889-0.004,2.59-0.008,5.34
						c0.003,0.691,0.008,1.938,0.008,1.938s-0.005,1.49-0.007,2.119c0.004,2.06,0.005,3.05,0.007,3.66
						C113.352,53.03,113.757,55.069,114.504,58.074z"/>
				</g>
			</g>
		</g>
		<g>
			<line fill="none" x1="114.504" y1="27.737" x2="195.402" y2="27.737"/>
			<g>
				<g>
					<path fill="#202020" d="M114.504,27.737c3.004,0.748,5.044,1.152,8.642,1.17c0.607,0.001,1.601,0.003,3.66,0.007
						c8.466-0.002,28.521-0.007,28.521-0.007s16.788,0.005,26.095,0.008c2.75-0.004,4.451-0.007,5.342-0.008
						c3.596-0.018,5.636-0.422,8.64-1.17c-3.004-0.748-5.044-1.152-8.64-1.17c-0.891-0.001-2.592-0.004-5.342-0.008
						c-9.307,0.003-26.095,0.008-26.095,0.008s-20.057-0.005-28.521-0.007c-2.062,0.004-3.053,0.005-3.66,0.007
						C119.548,26.585,117.509,26.989,114.504,27.737z"/>
				</g>
			</g>
		</g>
		<text transform="matrix(1 0 0 1 128.0081 47.3062)" fill="#FFFFFF" font-family="'ComicSansMS-Bold'" font-size="15">ABOUT</text>
	</g>
	<g id="work_1_">
		<g>
			<rect x="203.03" y="27.737" fill="#ED1F24" width="80.898" height="30.337"/>
		</g>
		<g>
			<line fill="none" x1="283.928" y1="27.737" x2="283.928" y2="58.074"/>
			<g>
				<g>
					<path fill="#FF4D4D" d="M283.928,27.737c-0.748,3.004-1.152,5.044-1.172,8.64c-0.001,0.61-0.003,1.601-0.007,3.66
						c0.002,0.629,0.007,2.119,0.007,2.119s-0.005,1.247-0.008,1.938c0.004,2.75,0.007,4.451,0.008,5.34
						c0.02,3.596,0.424,5.636,1.172,8.64c0.746-3.004,1.15-5.044,1.17-8.64c0.001-0.889,0.004-2.59,0.008-5.34
						c-0.003-0.691-0.008-1.938-0.008-1.938s0.005-1.49,0.007-2.119c-0.004-2.06-0.005-3.05-0.007-3.66
						C285.08,32.781,284.676,30.741,283.928,27.737z"/>
				</g>
			</g>
		</g>
		<g>
			<line fill="none" x1="283.928" y1="58.074" x2="203.03" y2="58.074"/>
			<g>
				<g>
					<path fill="#FF4D4D" d="M283.928,58.074c-3.006-0.748-5.046-1.152-8.642-1.17c-0.607-0.001-1.601-0.003-3.66-0.007
						c-8.466,0.002-28.521,0.007-28.521,0.007s-16.788-0.005-26.097-0.008c-2.75,0.004-4.449,0.007-5.34,0.008
						c-3.596,0.018-5.636,0.422-8.64,1.17c3.004,0.748,5.044,1.152,8.64,1.17c0.891,0.001,2.59,0.004,5.34,0.008
						c9.309-0.003,26.097-0.008,26.097-0.008s20.057,0.005,28.521,0.007c2.062-0.004,3.053-0.005,3.66-0.007
						C278.884,59.226,280.924,58.821,283.928,58.074z"/>
				</g>
			</g>
		</g>
		<g>
			<line fill="none" x1="203.03" y1="58.074" x2="203.03" y2="27.737"/>
			<g>
				<g>
					<path fill="#FF4D4D" d="M203.03,58.074c0.748-3.004,1.152-5.044,1.17-8.64c0.001-0.61,0.003-1.601,0.007-3.66
						c-0.002-0.629-0.007-2.119-0.007-2.119s0.005-1.247,0.008-1.938c-0.004-2.75-0.007-4.451-0.008-5.34
						c-0.018-3.596-0.422-5.636-1.17-8.64c-0.748,3.004-1.152,5.044-1.17,8.64c-0.001,0.889-0.004,2.59-0.008,5.34
						c0.003,0.691,0.008,1.938,0.008,1.938s-0.005,1.49-0.007,2.119c0.004,2.06,0.005,3.05,0.007,3.66
						C201.878,53.03,202.282,55.069,203.03,58.074z"/>
				</g>
			</g>
		</g>
		<g>
			<line fill="none" x1="203.03" y1="27.737" x2="283.928" y2="27.737"/>
			<g>
				<g>
					<path fill="#FF4D4D" d="M203.03,27.737c3.004,0.748,5.044,1.152,8.64,1.17c0.609,0.001,1.603,0.003,3.66,0.007
						c8.466-0.002,28.523-0.007,28.523-0.007s16.788,0.005,26.095,0.008c2.75-0.004,4.451-0.007,5.34-0.008
						c3.596-0.018,5.636-0.422,8.642-1.17c-3.006-0.748-5.046-1.152-8.642-1.17c-0.889-0.001-2.59-0.004-5.34-0.008
						c-9.307,0.003-26.095,0.008-26.095,0.008s-20.059-0.005-28.523-0.007c-2.06,0.004-3.051,0.005-3.66,0.007
						C208.073,26.585,206.034,26.989,203.03,27.737z"/>
				</g>
			</g>
		</g>
		<text transform="matrix(1 0 0 1 220.3127 47.3062)" fill="#FFFFFF" font-family="'ComicSansMS-Bold'" font-size="15">WORK</text>
	</g>
	<g id="email_1_">
		<g>
			<rect x="291.557" y="27.737" width="80.896" height="30.337"/>
		</g>
		<g>
			<line fill="none" x1="291.557" y1="58.074" x2="291.557" y2="27.737"/>
			<g>
				<g>
					<path fill="#202020" d="M291.557,58.074c0.748-3.004,1.15-5.044,1.17-8.64c0.001-0.61,0.003-1.601,0.007-3.66
						c-0.002-0.629-0.007-2.119-0.007-2.119s0.005-1.247,0.008-1.938c-0.004-2.75-0.007-4.451-0.008-5.34
						c-0.02-3.596-0.422-5.636-1.17-8.64c-0.748,3.004-1.152,5.044-1.17,8.64c-0.001,0.889-0.006,2.59-0.01,5.34
						c0.003,0.691,0.01,1.938,0.01,1.938s-0.007,1.49-0.009,2.119c0.004,2.06,0.007,3.05,0.009,3.66
						C290.405,53.03,290.809,55.069,291.557,58.074z"/>
				</g>
			</g>
		</g>
		<g>
			<line fill="none" x1="372.454" y1="27.737" x2="372.454" y2="58.074"/>
			<g>
				<g>
					<path fill="#202020" d="M372.454,27.737c-0.748,3.004-1.15,5.044-1.17,8.64c-0.001,0.61-0.003,1.601-0.007,3.66
						c0.002,0.629,0.007,2.119,0.007,2.119s-0.005,1.247-0.008,1.938c0.004,2.75,0.006,4.451,0.008,5.34
						c0.02,3.596,0.422,5.636,1.17,8.64c0.747-3.004,1.151-5.044,1.17-8.64c0.004-0.889,0.006-2.59,0.01-5.34
						c-0.003-0.691-0.01-1.938-0.01-1.938s0.007-1.49,0.009-2.119c-0.004-2.06-0.006-3.05-0.009-3.66
						C373.606,32.781,373.201,30.741,372.454,27.737z"/>
				</g>
			</g>
		</g>
		<g>
			<line fill="none" x1="372.454" y1="58.074" x2="291.557" y2="58.074"/>
			<g>
				<g>
					<path fill="#202020" d="M372.454,58.074c-3.004-0.748-5.044-1.152-8.64-1.17c-0.609-0.001-1.601-0.003-3.66-0.007
						c-8.466,0.002-28.521,0.007-28.521,0.007s-16.788-0.005-26.097-0.008c-2.75,0.004-4.452,0.007-5.341,0.008
						c-3.596,0.018-5.636,0.422-8.64,1.17c3.004,0.748,5.044,1.152,8.64,1.17c0.889,0.001,2.591,0.004,5.341,0.008
						c9.309-0.003,26.097-0.008,26.097-0.008s20.057,0.005,28.521,0.007c2.062-0.004,3.051-0.005,3.66-0.007
						C367.41,59.226,369.45,58.821,372.454,58.074z"/>
				</g>
			</g>
		</g>
		<g>
			<line fill="none" x1="291.557" y1="27.737" x2="372.454" y2="27.737"/>
			<g>
				<g>
					<path fill="#202020" d="M291.557,27.737c3.004,0.748,5.044,1.152,8.64,1.17c0.609,0.001,1.601,0.003,3.66,0.007
						c8.467-0.002,28.522-0.007,28.522-0.007s16.788,0.005,26.095,0.008c2.75-0.004,4.452-0.007,5.341-0.008
						c3.596-0.018,5.636-0.422,8.64-1.17c-3.004-0.748-5.044-1.152-8.64-1.17c-0.889-0.001-2.591-0.004-5.341-0.008
						c-9.307,0.003-26.095,0.008-26.095,0.008s-20.058-0.005-28.522-0.007c-2.062,0.004-3.051,0.005-3.66,0.007
						C296.601,26.585,294.561,26.989,291.557,27.737z"/>
				</g>
			</g>
		</g>
		<text transform="matrix(1 0 0 1 306.9871 47.3062)" fill="#FFFFFF" font-family="'ComicSansMS-Bold'" font-size="15">EMAIL</text>
	</g>
</g>
<g id="about">
	<g>
		<g>
			<g>
				<g>
					<path fill="#202020" d="M25.978,70.737c3.004,0.748,5.044,1.152,8.64,1.17c45.549,0,273.677,0,273.677,0s210.366,0,252.37,0
						c3.598-0.018,5.638-0.422,8.642-1.17c-3.004-0.748-5.044-1.152-8.642-1.17c-42.004,0-252.37,0-252.37,0s-228.127,0-273.677,0
						C31.022,69.585,28.982,69.989,25.978,70.737z"/>
				</g>
			</g>
		</g>
		<g>
			<g>
				<g>
					<path fill="#202020" d="M569.304,349.387c-3.004-0.748-5.044-1.152-8.642-1.169c-45.55,0-273.675,0-273.675,0
						s-210.368,0-252.372,0c-3.596,0.018-5.636,0.421-8.64,1.169c3.004,0.747,5.044,1.151,8.64,1.17c42.003,0,252.372,0,252.372,0
						s228.125,0,273.675,0C564.26,350.538,566.302,350.134,569.304,349.387z"/>
				</g>
			</g>
		</g>
		<g>
			<g>
				<g>
					<path fill="#202020" d="M569.304,349.387c-2.332-2.036-3.963-3.327-7.153-4.984c-18.312-9.391-110.034-56.43-110.034-56.43
						s-85.39-43.793-102.438-52.537c-3.208-1.625-5.207-2.196-8.224-2.902c2.332,2.036,3.964,3.327,7.154,4.984
						c17.049,8.744,102.439,52.538,102.439,52.538s91.72,47.039,110.031,56.431C564.29,348.11,566.289,348.681,569.304,349.387z"/>
				</g>
			</g>
		</g>
		<g>
			<g>
				<g>
					<path fill="#202020" d="M253.824,187.591c-2.332-2.036-3.962-3.327-7.154-4.984c-18.312-9.392-110.03-56.432-110.03-56.432
						S51.249,82.382,34.199,73.639c-3.208-1.625-5.208-2.196-8.222-2.902c2.332,2.036,3.962,3.327,7.152,4.984
						c17.052,8.744,102.439,52.537,102.439,52.537s91.719,47.039,110.032,56.432C248.811,186.314,250.81,186.885,253.824,187.591z"
						/>
				</g>
			</g>
		</g>
		<g>
			<g>
				<g>
					<path fill="#202020" d="M25.978,349.387c0.748-3.003,1.15-5.043,1.17-8.639c0-22.543,0-135.454,0-135.454s0-104.96,0-125.917
						c-0.02-3.596-0.422-5.636-1.17-8.64c-0.748,3.004-1.152,5.044-1.17,8.64c0,20.957,0,125.917,0,125.917s0,112.91,0,135.454
						C24.826,344.343,25.23,346.383,25.978,349.387z"/>
				</g>
			</g>
		</g>
		<g>
			<g>
				<g>
					<path fill="#202020" d="M253.827,232.534c-3.015,0.706-5.014,1.277-8.222,2.901c-18.313,9.393-110.033,56.432-110.033,56.432
						s-85.39,43.792-102.439,52.536c-3.189,1.657-4.82,2.948-7.152,4.984c3.014-0.706,5.014-1.276,8.222-2.901
						c17.05-8.744,102.439-52.536,102.439-52.536s91.72-47.04,110.031-56.432C249.865,235.86,251.495,234.57,253.827,232.534z"/>
				</g>
			</g>
		</g>
		<g>
			<g>
				<g>
					<path fill="#202020" d="M569.304,70.737c-3.017,0.706-5.016,1.277-8.222,2.901c-18.313,9.393-110.032,56.432-110.032,56.432
						s-85.391,43.793-102.438,52.537c-3.19,1.657-4.821,2.948-7.153,4.984c3.015-0.706,5.015-1.277,8.223-2.902
						c17.05-8.744,102.438-52.537,102.438-52.537S543.84,85.113,562.151,75.72C565.343,74.063,566.972,72.773,569.304,70.737z"/>
				</g>
			</g>
		</g>
		<g>
			<g>
				<g>
					<path fill="#202020" d="M569.304,70.737c-0.748,3.004-1.152,5.044-1.17,8.64c0,22.545,0,135.455,0,135.455s0,104.96,0,125.916
						c0.018,3.596,0.422,5.636,1.17,8.639c0.747-3.003,1.149-5.043,1.17-8.639c0-20.956,0-125.916,0-125.916s0-112.91,0-135.455
						C570.455,75.781,570.052,73.741,569.304,70.737z"/>
				</g>
			</g>
		</g>
		<text transform="matrix(1 0 0 1 201.1667 220.0601)" font-family="'ComicSansMS'" font-size="30">ABOUT PAGE</text>
	</g>
	<g id="home_3_">
		<g>
			<polyline points="106.876,58.074 25.978,58.074 25.978,27.737 106.876,27.737 			"/>
		</g>
		<g>
			<line fill="none" x1="106.876" y1="58.074" x2="25.978" y2="58.074"/>
			<g>
				<g>
					<path fill="#202020" d="M106.876,58.074c-3.004-0.748-5.044-1.152-8.64-1.17c-0.609-0.001-1.603-0.003-3.66-0.007
						c-8.466,0.002-28.521,0.007-28.521,0.007s-16.788-0.005-26.097-0.008c-2.75,0.004-4.451,0.007-5.34,0.008
						c-3.596,0.018-5.636,0.422-8.64,1.17c3.004,0.748,5.044,1.152,8.64,1.17c0.889,0.001,2.59,0.004,5.34,0.008
						c9.309-0.003,26.097-0.008,26.097-0.008s20.057,0.005,28.521,0.007c2.062-0.004,3.051-0.005,3.66-0.007
						C101.832,59.226,103.872,58.821,106.876,58.074z"/>
				</g>
			</g>
		</g>
		<g>
			<line fill="none" x1="25.978" y1="27.737" x2="106.876" y2="27.737"/>
			<g>
				<g>
					<path fill="#202020" d="M25.978,27.737c3.004,0.748,5.044,1.152,8.64,1.17c0.609,0.001,1.603,0.003,3.66,0.007
						c8.466-0.002,28.521-0.007,28.521-0.007s16.788,0.005,26.097,0.008c2.75-0.004,4.451-0.007,5.34-0.008
						c3.596-0.018,5.636-0.422,8.64-1.17c-3.004-0.748-5.044-1.152-8.64-1.17c-0.889-0.001-2.59-0.004-5.34-0.008
						C83.588,26.562,66.8,26.567,66.8,26.567s-20.057-0.005-28.521-0.007c-2.062,0.004-3.051,0.005-3.66,0.007
						C31.022,26.585,28.982,26.989,25.978,27.737z"/>
				</g>
			</g>
		</g>
		<g>
			<line fill="none" x1="25.978" y1="58.074" x2="25.978" y2="27.737"/>
			<g>
				<g>
					<path fill="#202020" d="M25.978,58.074c0.748-3.004,1.15-5.044,1.17-8.64c0.001-0.61,0.003-1.601,0.007-3.66
						c-0.002-0.629-0.007-2.119-0.007-2.119s0.005-1.247,0.008-1.938c-0.004-2.75-0.007-4.451-0.008-5.34
						c-0.02-3.596-0.422-5.636-1.17-8.64c-0.748,3.004-1.152,5.044-1.17,8.64c-0.001,0.889-0.004,2.59-0.01,5.34
						c0.005,0.691,0.01,1.938,0.01,1.938s-0.005,1.49-0.009,2.119c0.006,2.06,0.007,3.05,0.009,3.66
						C24.826,53.03,25.23,55.069,25.978,58.074z"/>
				</g>
			</g>
		</g>
		<g>
			<line fill="none" x1="106.876" y1="27.737" x2="106.876" y2="58.074"/>
			<g>
				<g>
					<path fill="#202020" d="M106.876,27.737c-0.748,3.004-1.15,5.044-1.17,8.64c-0.001,0.61-0.003,1.601-0.007,3.66
						c0.002,0.629,0.007,2.119,0.007,2.119s-0.005,1.247-0.008,1.938c0.004,2.75,0.007,4.451,0.008,5.34
						c0.02,3.596,0.422,5.636,1.17,8.64c0.748-3.004,1.152-5.044,1.17-8.64c0.001-0.889,0.004-2.59,0.01-5.34
						c-0.005-0.691-0.01-1.938-0.01-1.938s0.005-1.49,0.009-2.119c-0.006-2.06-0.007-3.05-0.009-3.66
						C108.028,32.781,107.624,30.741,106.876,27.737z"/>
				</g>
			</g>
		</g>
		<text transform="matrix(1 0 0 1 43.3752 47.3062)" fill="#FFFFFF" font-family="'ComicSansMS-Bold'" font-size="15">HOME</text>
	</g>
	<g id="about_3_">
		<g>
			<rect x="114.504" y="27.737" fill="#ED1F24" width="80.897" height="30.337"/>
		</g>
		<g>
			<line fill="none" x1="195.402" y1="27.737" x2="195.402" y2="58.074"/>
			<g>
				<g>
					<path fill="#FF4D4D" d="M195.402,27.737c-0.748,3.004-1.152,5.044-1.17,8.64c-0.001,0.61-0.003,1.601-0.007,3.66
						c0.002,0.629,0.007,2.119,0.007,2.119s-0.005,1.247-0.008,1.938c0.004,2.75,0.007,4.451,0.008,5.34
						c0.018,3.596,0.422,5.636,1.17,8.64c0.748-3.004,1.152-5.044,1.17-8.64c0.001-0.889,0.004-2.59,0.008-5.34
						c-0.003-0.691-0.008-1.938-0.008-1.938s0.005-1.49,0.007-2.119c-0.004-2.06-0.005-3.05-0.007-3.66
						C196.553,32.781,196.149,30.741,195.402,27.737z"/>
				</g>
			</g>
		</g>
		<g>
			<line fill="none" x1="195.402" y1="58.074" x2="114.504" y2="58.074"/>
			<g>
				<g>
					<path fill="#FF4D4D" d="M195.402,58.074c-3.004-0.748-5.044-1.152-8.64-1.17c-0.609-0.001-1.603-0.003-3.66-0.007
						c-8.466,0.002-28.523,0.007-28.523,0.007s-16.788-0.005-26.095-0.008c-2.75,0.004-4.451,0.007-5.34,0.008
						c-3.598,0.018-5.638,0.422-8.642,1.17c3.004,0.748,5.044,1.152,8.642,1.17c0.889,0.001,2.59,0.004,5.34,0.008
						c9.307-0.003,26.095-0.008,26.095-0.008s20.059,0.005,28.523,0.007c2.06-0.004,3.051-0.005,3.66-0.007
						C190.358,59.226,192.397,58.821,195.402,58.074z"/>
				</g>
			</g>
		</g>
		<g>
			<line fill="none" x1="114.504" y1="58.074" x2="114.504" y2="27.737"/>
			<g>
				<g>
					<path fill="#FF4D4D" d="M114.504,58.074c0.748-3.004,1.152-5.044,1.17-8.64c0.001-0.61,0.003-1.601,0.009-3.66
						c-0.002-0.629-0.009-2.119-0.009-2.119s0.007-1.247,0.01-1.938c-0.004-2.75-0.009-4.451-0.01-5.34
						c-0.018-3.596-0.422-5.636-1.17-8.64c-0.748,3.004-1.15,5.044-1.17,8.64c-0.001,0.889-0.004,2.59-0.008,5.34
						c0.003,0.691,0.008,1.938,0.008,1.938s-0.005,1.49-0.007,2.119c0.004,2.06,0.005,3.05,0.007,3.66
						C113.352,53.03,113.757,55.069,114.504,58.074z"/>
				</g>
			</g>
		</g>
		<g>
			<line fill="none" x1="114.504" y1="27.737" x2="195.402" y2="27.737"/>
			<g>
				<g>
					<path fill="#FF4D4D" d="M114.504,27.737c3.004,0.748,5.044,1.152,8.642,1.17c0.607,0.001,1.601,0.003,3.66,0.007
						c8.466-0.002,28.521-0.007,28.521-0.007s16.788,0.005,26.095,0.008c2.75-0.004,4.451-0.007,5.342-0.008
						c3.596-0.018,5.636-0.422,8.64-1.17c-3.004-0.748-5.044-1.152-8.64-1.17c-0.891-0.001-2.592-0.004-5.342-0.008
						c-9.307,0.003-26.095,0.008-26.095,0.008s-20.057-0.005-28.521-0.007c-2.062,0.004-3.053,0.005-3.66,0.007
						C119.548,26.585,117.509,26.989,114.504,27.737z"/>
				</g>
			</g>
		</g>
		<text transform="matrix(1 0 0 1 128.0081 47.3062)" fill="#FFFFFF" font-family="'ComicSansMS-Bold'" font-size="15">ABOUT</text>
	</g>
	<g id="work_4_">
		<g>
			<rect x="203.03" y="27.737" width="80.898" height="30.337"/>
		</g>
		<g>
			<line fill="none" x1="283.928" y1="27.737" x2="283.928" y2="58.074"/>
			<g>
				<g>
					<path fill="#202020" d="M283.928,27.737c-0.748,3.004-1.152,5.044-1.172,8.64c-0.001,0.61-0.003,1.601-0.007,3.66
						c0.002,0.629,0.007,2.119,0.007,2.119s-0.005,1.247-0.008,1.938c0.004,2.75,0.007,4.451,0.008,5.34
						c0.02,3.596,0.424,5.636,1.172,8.64c0.746-3.004,1.15-5.044,1.17-8.64c0.001-0.889,0.004-2.59,0.008-5.34
						c-0.003-0.691-0.008-1.938-0.008-1.938s0.005-1.49,0.007-2.119c-0.004-2.06-0.005-3.05-0.007-3.66
						C285.08,32.781,284.676,30.741,283.928,27.737z"/>
				</g>
			</g>
		</g>
		<g>
			<line fill="none" x1="283.928" y1="58.074" x2="203.03" y2="58.074"/>
			<g>
				<g>
					<path fill="#202020" d="M283.928,58.074c-3.006-0.748-5.046-1.152-8.642-1.17c-0.607-0.001-1.601-0.003-3.66-0.007
						c-8.466,0.002-28.521,0.007-28.521,0.007s-16.788-0.005-26.097-0.008c-2.75,0.004-4.449,0.007-5.34,0.008
						c-3.596,0.018-5.636,0.422-8.64,1.17c3.004,0.748,5.044,1.152,8.64,1.17c0.891,0.001,2.59,0.004,5.34,0.008
						c9.309-0.003,26.097-0.008,26.097-0.008s20.057,0.005,28.521,0.007c2.062-0.004,3.053-0.005,3.66-0.007
						C278.884,59.226,280.924,58.821,283.928,58.074z"/>
				</g>
			</g>
		</g>
		<g>
			<line fill="none" x1="203.03" y1="58.074" x2="203.03" y2="27.737"/>
			<g>
				<g>
					<path fill="#202020" d="M203.03,58.074c0.748-3.004,1.152-5.044,1.17-8.64c0.001-0.61,0.003-1.601,0.007-3.66
						c-0.002-0.629-0.007-2.119-0.007-2.119s0.005-1.247,0.008-1.938c-0.004-2.75-0.007-4.451-0.008-5.34
						c-0.018-3.596-0.422-5.636-1.17-8.64c-0.748,3.004-1.152,5.044-1.17,8.64c-0.001,0.889-0.004,2.59-0.008,5.34
						c0.003,0.691,0.008,1.938,0.008,1.938s-0.005,1.49-0.007,2.119c0.004,2.06,0.005,3.05,0.007,3.66
						C201.878,53.03,202.282,55.069,203.03,58.074z"/>
				</g>
			</g>
		</g>
		<g>
			<line fill="none" x1="203.03" y1="27.737" x2="283.928" y2="27.737"/>
			<g>
				<g>
					<path fill="#202020" d="M203.03,27.737c3.004,0.748,5.044,1.152,8.64,1.17c0.609,0.001,1.603,0.003,3.66,0.007
						c8.466-0.002,28.523-0.007,28.523-0.007s16.788,0.005,26.095,0.008c2.75-0.004,4.451-0.007,5.34-0.008
						c3.596-0.018,5.636-0.422,8.642-1.17c-3.006-0.748-5.046-1.152-8.642-1.17c-0.889-0.001-2.59-0.004-5.34-0.008
						c-9.307,0.003-26.095,0.008-26.095,0.008s-20.059-0.005-28.523-0.007c-2.06,0.004-3.051,0.005-3.66,0.007
						C208.073,26.585,206.034,26.989,203.03,27.737z"/>
				</g>
			</g>
		</g>
		<text transform="matrix(1 0 0 1 220.3127 47.3062)" fill="#FFFFFF" font-family="'ComicSansMS-Bold'" font-size="15">WORK</text>
	</g>
	<g id="email_2_">
		<g>
			<rect x="291.557" y="27.737" width="80.896" height="30.337"/>
		</g>
		<g>
			<line fill="none" x1="291.557" y1="58.074" x2="291.557" y2="27.737"/>
			<g>
				<g>
					<path fill="#202020" d="M291.557,58.074c0.748-3.004,1.15-5.044,1.17-8.64c0.001-0.61,0.003-1.601,0.007-3.66
						c-0.002-0.629-0.007-2.119-0.007-2.119s0.005-1.247,0.008-1.938c-0.004-2.75-0.007-4.451-0.008-5.34
						c-0.02-3.596-0.422-5.636-1.17-8.64c-0.748,3.004-1.152,5.044-1.17,8.64c-0.001,0.889-0.006,2.59-0.01,5.34
						c0.003,0.691,0.01,1.938,0.01,1.938s-0.007,1.49-0.009,2.119c0.004,2.06,0.007,3.05,0.009,3.66
						C290.405,53.03,290.809,55.069,291.557,58.074z"/>
				</g>
			</g>
		</g>
		<g>
			<line fill="none" x1="372.454" y1="27.737" x2="372.454" y2="58.074"/>
			<g>
				<g>
					<path fill="#202020" d="M372.454,27.737c-0.748,3.004-1.15,5.044-1.17,8.64c-0.001,0.61-0.003,1.601-0.007,3.66
						c0.002,0.629,0.007,2.119,0.007,2.119s-0.005,1.247-0.008,1.938c0.004,2.75,0.006,4.451,0.008,5.34
						c0.02,3.596,0.422,5.636,1.17,8.64c0.747-3.004,1.151-5.044,1.17-8.64c0.004-0.889,0.006-2.59,0.01-5.34
						c-0.003-0.691-0.01-1.938-0.01-1.938s0.007-1.49,0.009-2.119c-0.004-2.06-0.006-3.05-0.009-3.66
						C373.606,32.781,373.201,30.741,372.454,27.737z"/>
				</g>
			</g>
		</g>
		<g>
			<line fill="none" x1="372.454" y1="58.074" x2="291.557" y2="58.074"/>
			<g>
				<g>
					<path fill="#202020" d="M372.454,58.074c-3.004-0.748-5.044-1.152-8.64-1.17c-0.609-0.001-1.601-0.003-3.66-0.007
						c-8.466,0.002-28.521,0.007-28.521,0.007s-16.788-0.005-26.097-0.008c-2.75,0.004-4.452,0.007-5.341,0.008
						c-3.596,0.018-5.636,0.422-8.64,1.17c3.004,0.748,5.044,1.152,8.64,1.17c0.889,0.001,2.591,0.004,5.341,0.008
						c9.309-0.003,26.097-0.008,26.097-0.008s20.057,0.005,28.521,0.007c2.062-0.004,3.051-0.005,3.66-0.007
						C367.41,59.226,369.45,58.821,372.454,58.074z"/>
				</g>
			</g>
		</g>
		<g>
			<line fill="none" x1="291.557" y1="27.737" x2="372.454" y2="27.737"/>
			<g>
				<g>
					<path fill="#202020" d="M291.557,27.737c3.004,0.748,5.044,1.152,8.64,1.17c0.609,0.001,1.601,0.003,3.66,0.007
						c8.467-0.002,28.522-0.007,28.522-0.007s16.788,0.005,26.095,0.008c2.75-0.004,4.452-0.007,5.341-0.008
						c3.596-0.018,5.636-0.422,8.64-1.17c-3.004-0.748-5.044-1.152-8.64-1.17c-0.889-0.001-2.591-0.004-5.341-0.008
						c-9.307,0.003-26.095,0.008-26.095,0.008s-20.058-0.005-28.522-0.007c-2.062,0.004-3.051,0.005-3.66,0.007
						C296.601,26.585,294.561,26.989,291.557,27.737z"/>
				</g>
			</g>
		</g>
		<text transform="matrix(1 0 0 1 306.9871 47.3062)" fill="#FFFFFF" font-family="'ComicSansMS-Bold'" font-size="15">EMAIL</text>
	</g>
</g>
<g id="email_3_">
	<g>
		<g>
			<g>
				<g>
					<path fill="#202020" d="M25.978,70.737c3.004,0.748,5.044,1.152,8.64,1.17c45.549,0,273.677,0,273.677,0s210.366,0,252.37,0
						c3.598-0.018,5.638-0.422,8.642-1.17c-3.004-0.748-5.044-1.152-8.642-1.17c-42.004,0-252.37,0-252.37,0s-228.127,0-273.677,0
						C31.022,69.585,28.982,69.989,25.978,70.737z"/>
				</g>
			</g>
		</g>
		<g>
			<g>
				<g>
					<path fill="#202020" d="M569.304,349.387c-3.004-0.748-5.044-1.152-8.642-1.169c-45.55,0-273.675,0-273.675,0
						s-210.368,0-252.372,0c-3.596,0.018-5.636,0.421-8.64,1.169c3.004,0.747,5.044,1.151,8.64,1.17c42.003,0,252.372,0,252.372,0
						s228.125,0,273.675,0C564.26,350.538,566.302,350.134,569.304,349.387z"/>
				</g>
			</g>
		</g>
		<g>
			<g>
				<g>
					<path fill="#202020" d="M569.304,349.387c-2.332-2.036-3.963-3.327-7.153-4.984c-18.312-9.391-110.034-56.43-110.034-56.43
						s-85.39-43.793-102.438-52.537c-3.208-1.625-5.207-2.196-8.224-2.902c2.332,2.036,3.964,3.327,7.154,4.984
						c17.049,8.744,102.439,52.538,102.439,52.538s91.72,47.039,110.031,56.431C564.29,348.11,566.289,348.681,569.304,349.387z"/>
				</g>
			</g>
		</g>
		<g>
			<g>
				<g>
					<path fill="#202020" d="M253.824,187.591c-2.332-2.036-3.962-3.327-7.154-4.984c-18.312-9.392-110.03-56.432-110.03-56.432
						S51.249,82.382,34.199,73.639c-3.208-1.625-5.208-2.196-8.222-2.902c2.332,2.036,3.962,3.327,7.152,4.984
						c17.052,8.744,102.439,52.537,102.439,52.537s91.719,47.039,110.032,56.432C248.811,186.314,250.81,186.885,253.824,187.591z"
						/>
				</g>
			</g>
		</g>
		<g>
			<g>
				<g>
					<path fill="#202020" d="M25.978,349.387c0.748-3.003,1.15-5.043,1.17-8.639c0-22.543,0-135.454,0-135.454s0-104.96,0-125.917
						c-0.02-3.596-0.422-5.636-1.17-8.64c-0.748,3.004-1.152,5.044-1.17,8.64c0,20.957,0,125.917,0,125.917s0,112.91,0,135.454
						C24.826,344.343,25.23,346.383,25.978,349.387z"/>
				</g>
			</g>
		</g>
		<g>
			<g>
				<g>
					<path fill="#202020" d="M253.827,232.534c-3.015,0.706-5.014,1.277-8.222,2.901c-18.313,9.393-110.033,56.432-110.033,56.432
						s-85.39,43.792-102.439,52.536c-3.189,1.657-4.82,2.948-7.152,4.984c3.014-0.706,5.014-1.276,8.222-2.901
						c17.05-8.744,102.439-52.536,102.439-52.536s91.72-47.04,110.031-56.432C249.865,235.86,251.495,234.57,253.827,232.534z"/>
				</g>
			</g>
		</g>
		<g>
			<g>
				<g>
					<path fill="#202020" d="M569.304,70.737c-3.017,0.706-5.016,1.277-8.222,2.901c-18.313,9.393-110.032,56.432-110.032,56.432
						s-85.391,43.793-102.438,52.537c-3.19,1.657-4.821,2.948-7.153,4.984c3.015-0.706,5.015-1.277,8.223-2.902
						c17.05-8.744,102.438-52.537,102.438-52.537S543.84,85.113,562.151,75.72C565.343,74.063,566.972,72.773,569.304,70.737z"/>
				</g>
			</g>
		</g>
		<g>
			<g>
				<g>
					<path fill="#202020" d="M569.304,70.737c-0.748,3.004-1.152,5.044-1.17,8.64c0,22.545,0,135.455,0,135.455s0,104.96,0,125.916
						c0.018,3.596,0.422,5.636,1.17,8.639c0.747-3.003,1.149-5.043,1.17-8.639c0-20.956,0-125.916,0-125.916s0-112.91,0-135.455
						C570.455,75.781,570.052,73.741,569.304,70.737z"/>
				</g>
			</g>
		</g>
		<text transform="matrix(1 0 0 1 204.7771 220.0601)" font-family="'ComicSansMS'" font-size="30">EMAIL PAGE</text>
	</g>
	<g id="home_2_">
		<g>
			<polyline points="106.876,58.074 25.978,58.074 25.978,27.737 106.876,27.737 			"/>
		</g>
		<g>
			<line fill="none" x1="106.876" y1="58.074" x2="25.978" y2="58.074"/>
			<g>
				<g>
					<path fill="#202020" d="M106.876,58.074c-3.004-0.748-5.044-1.152-8.64-1.17c-0.609-0.001-1.603-0.003-3.66-0.007
						c-8.466,0.002-28.521,0.007-28.521,0.007s-16.788-0.005-26.097-0.008c-2.75,0.004-4.451,0.007-5.34,0.008
						c-3.596,0.018-5.636,0.422-8.64,1.17c3.004,0.748,5.044,1.152,8.64,1.17c0.889,0.001,2.59,0.004,5.34,0.008
						c9.309-0.003,26.097-0.008,26.097-0.008s20.057,0.005,28.521,0.007c2.062-0.004,3.051-0.005,3.66-0.007
						C101.832,59.226,103.872,58.821,106.876,58.074z"/>
				</g>
			</g>
		</g>
		<g>
			<line fill="none" x1="25.978" y1="27.737" x2="106.876" y2="27.737"/>
			<g>
				<g>
					<path fill="#202020" d="M25.978,27.737c3.004,0.748,5.044,1.152,8.64,1.17c0.609,0.001,1.603,0.003,3.66,0.007
						c8.466-0.002,28.521-0.007,28.521-0.007s16.788,0.005,26.097,0.008c2.75-0.004,4.451-0.007,5.34-0.008
						c3.596-0.018,5.636-0.422,8.64-1.17c-3.004-0.748-5.044-1.152-8.64-1.17c-0.889-0.001-2.59-0.004-5.34-0.008
						C83.588,26.562,66.8,26.567,66.8,26.567s-20.057-0.005-28.521-0.007c-2.062,0.004-3.051,0.005-3.66,0.007
						C31.022,26.585,28.982,26.989,25.978,27.737z"/>
				</g>
			</g>
		</g>
		<g>
			<line fill="none" x1="25.978" y1="58.074" x2="25.978" y2="27.737"/>
			<g>
				<g>
					<path fill="#202020" d="M25.978,58.074c0.748-3.004,1.15-5.044,1.17-8.64c0.001-0.61,0.003-1.601,0.007-3.66
						c-0.002-0.629-0.007-2.119-0.007-2.119s0.005-1.247,0.008-1.938c-0.004-2.75-0.007-4.451-0.008-5.34
						c-0.02-3.596-0.422-5.636-1.17-8.64c-0.748,3.004-1.152,5.044-1.17,8.64c-0.001,0.889-0.004,2.59-0.01,5.34
						c0.005,0.691,0.01,1.938,0.01,1.938s-0.005,1.49-0.009,2.119c0.006,2.06,0.007,3.05,0.009,3.66
						C24.826,53.03,25.23,55.069,25.978,58.074z"/>
				</g>
			</g>
		</g>
		<g>
			<line fill="none" x1="106.876" y1="27.737" x2="106.876" y2="58.074"/>
			<g>
				<g>
					<path fill="#202020" d="M106.876,27.737c-0.748,3.004-1.15,5.044-1.17,8.64c-0.001,0.61-0.003,1.601-0.007,3.66
						c0.002,0.629,0.007,2.119,0.007,2.119s-0.005,1.247-0.008,1.938c0.004,2.75,0.007,4.451,0.008,5.34
						c0.02,3.596,0.422,5.636,1.17,8.64c0.748-3.004,1.152-5.044,1.17-8.64c0.001-0.889,0.004-2.59,0.01-5.34
						c-0.005-0.691-0.01-1.938-0.01-1.938s0.005-1.49,0.009-2.119c-0.006-2.06-0.007-3.05-0.009-3.66
						C108.028,32.781,107.624,30.741,106.876,27.737z"/>
				</g>
			</g>
		</g>
		<text transform="matrix(1 0 0 1 43.3752 47.3062)" fill="#FFFFFF" font-family="'ComicSansMS-Bold'" font-size="15">HOME</text>
	</g>
	<g id="about_2_">
		<g>
			<rect x="114.504" y="27.737" width="80.897" height="30.337"/>
		</g>
		<g>
			<line fill="none" x1="195.402" y1="27.737" x2="195.402" y2="58.074"/>
			<g>
				<g>
					<path fill="#202020" d="M195.402,27.737c-0.748,3.004-1.152,5.044-1.17,8.64c-0.001,0.61-0.003,1.601-0.007,3.66
						c0.002,0.629,0.007,2.119,0.007,2.119s-0.005,1.247-0.008,1.938c0.004,2.75,0.007,4.451,0.008,5.34
						c0.018,3.596,0.422,5.636,1.17,8.64c0.748-3.004,1.152-5.044,1.17-8.64c0.001-0.889,0.004-2.59,0.008-5.34
						c-0.003-0.691-0.008-1.938-0.008-1.938s0.005-1.49,0.007-2.119c-0.004-2.06-0.005-3.05-0.007-3.66
						C196.553,32.781,196.149,30.741,195.402,27.737z"/>
				</g>
			</g>
		</g>
		<g>
			<line fill="none" x1="195.402" y1="58.074" x2="114.504" y2="58.074"/>
			<g>
				<g>
					<path fill="#202020" d="M195.402,58.074c-3.004-0.748-5.044-1.152-8.64-1.17c-0.609-0.001-1.603-0.003-3.66-0.007
						c-8.466,0.002-28.523,0.007-28.523,0.007s-16.788-0.005-26.095-0.008c-2.75,0.004-4.451,0.007-5.34,0.008
						c-3.598,0.018-5.638,0.422-8.642,1.17c3.004,0.748,5.044,1.152,8.642,1.17c0.889,0.001,2.59,0.004,5.34,0.008
						c9.307-0.003,26.095-0.008,26.095-0.008s20.059,0.005,28.523,0.007c2.06-0.004,3.051-0.005,3.66-0.007
						C190.358,59.226,192.397,58.821,195.402,58.074z"/>
				</g>
			</g>
		</g>
		<g>
			<line fill="none" x1="114.504" y1="58.074" x2="114.504" y2="27.737"/>
			<g>
				<g>
					<path fill="#202020" d="M114.504,58.074c0.748-3.004,1.152-5.044,1.17-8.64c0.001-0.61,0.003-1.601,0.009-3.66
						c-0.002-0.629-0.009-2.119-0.009-2.119s0.007-1.247,0.01-1.938c-0.004-2.75-0.009-4.451-0.01-5.34
						c-0.018-3.596-0.422-5.636-1.17-8.64c-0.748,3.004-1.15,5.044-1.17,8.64c-0.001,0.889-0.004,2.59-0.008,5.34
						c0.003,0.691,0.008,1.938,0.008,1.938s-0.005,1.49-0.007,2.119c0.004,2.06,0.005,3.05,0.007,3.66
						C113.352,53.03,113.757,55.069,114.504,58.074z"/>
				</g>
			</g>
		</g>
		<g>
			<line fill="none" x1="114.504" y1="27.737" x2="195.402" y2="27.737"/>
			<g>
				<g>
					<path fill="#202020" d="M114.504,27.737c3.004,0.748,5.044,1.152,8.642,1.17c0.607,0.001,1.601,0.003,3.66,0.007
						c8.466-0.002,28.521-0.007,28.521-0.007s16.788,0.005,26.095,0.008c2.75-0.004,4.451-0.007,5.342-0.008
						c3.596-0.018,5.636-0.422,8.64-1.17c-3.004-0.748-5.044-1.152-8.64-1.17c-0.891-0.001-2.592-0.004-5.342-0.008
						c-9.307,0.003-26.095,0.008-26.095,0.008s-20.057-0.005-28.521-0.007c-2.062,0.004-3.053,0.005-3.66,0.007
						C119.548,26.585,117.509,26.989,114.504,27.737z"/>
				</g>
			</g>
		</g>
		<text transform="matrix(1 0 0 1 128.0081 47.3062)" fill="#FFFFFF" font-family="'ComicSansMS-Bold'" font-size="15">ABOUT</text>
	</g>
	<g id="work_2_">
		<g>
			<rect x="203.03" y="27.737" width="80.898" height="30.337"/>
		</g>
		<g>
			<line fill="none" x1="283.928" y1="27.737" x2="283.928" y2="58.074"/>
			<g>
				<g>
					<path fill="#202020" d="M283.928,27.737c-0.748,3.004-1.152,5.044-1.172,8.64c-0.001,0.61-0.003,1.601-0.007,3.66
						c0.002,0.629,0.007,2.119,0.007,2.119s-0.005,1.247-0.008,1.938c0.004,2.75,0.007,4.451,0.008,5.34
						c0.02,3.596,0.424,5.636,1.172,8.64c0.746-3.004,1.15-5.044,1.17-8.64c0.001-0.889,0.004-2.59,0.008-5.34
						c-0.003-0.691-0.008-1.938-0.008-1.938s0.005-1.49,0.007-2.119c-0.004-2.06-0.005-3.05-0.007-3.66
						C285.08,32.781,284.676,30.741,283.928,27.737z"/>
				</g>
			</g>
		</g>
		<g>
			<line fill="none" x1="283.928" y1="58.074" x2="203.03" y2="58.074"/>
			<g>
				<g>
					<path fill="#202020" d="M283.928,58.074c-3.006-0.748-5.046-1.152-8.642-1.17c-0.607-0.001-1.601-0.003-3.66-0.007
						c-8.466,0.002-28.521,0.007-28.521,0.007s-16.788-0.005-26.097-0.008c-2.75,0.004-4.449,0.007-5.34,0.008
						c-3.596,0.018-5.636,0.422-8.64,1.17c3.004,0.748,5.044,1.152,8.64,1.17c0.891,0.001,2.59,0.004,5.34,0.008
						c9.309-0.003,26.097-0.008,26.097-0.008s20.057,0.005,28.521,0.007c2.062-0.004,3.053-0.005,3.66-0.007
						C278.884,59.226,280.924,58.821,283.928,58.074z"/>
				</g>
			</g>
		</g>
		<g>
			<line fill="none" x1="203.03" y1="58.074" x2="203.03" y2="27.737"/>
			<g>
				<g>
					<path fill="#202020" d="M203.03,58.074c0.748-3.004,1.152-5.044,1.17-8.64c0.001-0.61,0.003-1.601,0.007-3.66
						c-0.002-0.629-0.007-2.119-0.007-2.119s0.005-1.247,0.008-1.938c-0.004-2.75-0.007-4.451-0.008-5.34
						c-0.018-3.596-0.422-5.636-1.17-8.64c-0.748,3.004-1.152,5.044-1.17,8.64c-0.001,0.889-0.004,2.59-0.008,5.34
						c0.003,0.691,0.008,1.938,0.008,1.938s-0.005,1.49-0.007,2.119c0.004,2.06,0.005,3.05,0.007,3.66
						C201.878,53.03,202.282,55.069,203.03,58.074z"/>
				</g>
			</g>
		</g>
		<g>
			<line fill="none" x1="203.03" y1="27.737" x2="283.928" y2="27.737"/>
			<g>
				<g>
					<path fill="#202020" d="M203.03,27.737c3.004,0.748,5.044,1.152,8.64,1.17c0.609,0.001,1.603,0.003,3.66,0.007
						c8.466-0.002,28.523-0.007,28.523-0.007s16.788,0.005,26.095,0.008c2.75-0.004,4.451-0.007,5.34-0.008
						c3.596-0.018,5.636-0.422,8.642-1.17c-3.006-0.748-5.046-1.152-8.642-1.17c-0.889-0.001-2.59-0.004-5.34-0.008
						c-9.307,0.003-26.095,0.008-26.095,0.008s-20.059-0.005-28.523-0.007c-2.06,0.004-3.051,0.005-3.66,0.007
						C208.073,26.585,206.034,26.989,203.03,27.737z"/>
				</g>
			</g>
		</g>
		<text transform="matrix(1 0 0 1 220.3127 47.3062)" fill="#FFFFFF" font-family="'ComicSansMS-Bold'" font-size="15">WORK</text>
	</g>
	<g id="email_4_">
		<g>
			<rect x="291.557" y="27.737" fill="#ED1F24" width="80.896" height="30.337"/>
		</g>
		<g>
			<line fill="none" x1="291.557" y1="58.074" x2="291.557" y2="27.737"/>
			<g>
				<g>
					<path fill="#FF4D4D" d="M291.557,58.074c0.748-3.004,1.15-5.044,1.17-8.64c0.001-0.61,0.003-1.601,0.007-3.66
						c-0.002-0.629-0.007-2.119-0.007-2.119s0.005-1.247,0.008-1.938c-0.004-2.75-0.007-4.451-0.008-5.34
						c-0.02-3.596-0.422-5.636-1.17-8.64c-0.748,3.004-1.152,5.044-1.17,8.64c-0.001,0.889-0.006,2.59-0.01,5.34
						c0.003,0.691,0.01,1.938,0.01,1.938s-0.007,1.49-0.009,2.119c0.004,2.06,0.007,3.05,0.009,3.66
						C290.405,53.03,290.809,55.069,291.557,58.074z"/>
				</g>
			</g>
		</g>
		<g>
			<line fill="none" x1="372.454" y1="27.737" x2="372.454" y2="58.074"/>
			<g>
				<g>
					<path fill="#FF4D4D" d="M372.454,27.737c-0.748,3.004-1.15,5.044-1.17,8.64c-0.001,0.61-0.003,1.601-0.007,3.66
						c0.002,0.629,0.007,2.119,0.007,2.119s-0.005,1.247-0.008,1.938c0.004,2.75,0.006,4.451,0.008,5.34
						c0.02,3.596,0.422,5.636,1.17,8.64c0.747-3.004,1.151-5.044,1.17-8.64c0.004-0.889,0.006-2.59,0.01-5.34
						c-0.003-0.691-0.01-1.938-0.01-1.938s0.007-1.49,0.009-2.119c-0.004-2.06-0.006-3.05-0.009-3.66
						C373.606,32.781,373.201,30.741,372.454,27.737z"/>
				</g>
			</g>
		</g>
		<g>
			<line fill="none" x1="372.454" y1="58.074" x2="291.557" y2="58.074"/>
			<g>
				<g>
					<path fill="#FF4D4D" d="M372.454,58.074c-3.004-0.748-5.044-1.152-8.64-1.17c-0.609-0.001-1.601-0.003-3.66-0.007
						c-8.466,0.002-28.521,0.007-28.521,0.007s-16.788-0.005-26.097-0.008c-2.75,0.004-4.452,0.007-5.341,0.008
						c-3.596,0.018-5.636,0.422-8.64,1.17c3.004,0.748,5.044,1.152,8.64,1.17c0.889,0.001,2.591,0.004,5.341,0.008
						c9.309-0.003,26.097-0.008,26.097-0.008s20.057,0.005,28.521,0.007c2.062-0.004,3.051-0.005,3.66-0.007
						C367.41,59.226,369.45,58.821,372.454,58.074z"/>
				</g>
			</g>
		</g>
		<g>
			<line fill="none" x1="291.557" y1="27.737" x2="372.454" y2="27.737"/>
			<g>
				<g>
					<path fill="#FF4D4D" d="M291.557,27.737c3.004,0.748,5.044,1.152,8.64,1.17c0.609,0.001,1.601,0.003,3.66,0.007
						c8.467-0.002,28.522-0.007,28.522-0.007s16.788,0.005,26.095,0.008c2.75-0.004,4.452-0.007,5.341-0.008
						c3.596-0.018,5.636-0.422,8.64-1.17c-3.004-0.748-5.044-1.152-8.64-1.17c-0.889-0.001-2.591-0.004-5.341-0.008
						c-9.307,0.003-26.095,0.008-26.095,0.008s-20.058-0.005-28.522-0.007c-2.062,0.004-3.051,0.005-3.66,0.007
						C296.601,26.585,294.561,26.989,291.557,27.737z"/>
				</g>
			</g>
		</g>
		<text transform="matrix(1 0 0 1 306.9871 47.3062)" fill="#FFFFFF" font-family="'ComicSansMS-Bold'" font-size="15">EMAIL</text>
	</g>
</g>
<g id="home">
	<g>
		<g>
			<path fill="none" stroke="#000000" stroke-width="0.3" stroke-miterlimit="10" d="M569.304,349.387"/>
		</g>
		<g>
			<path fill="none" stroke="#000000" stroke-width="0.3" stroke-miterlimit="10" d="M569.304,70.737"/>
		</g>
		<g>
			<g>
				<g>
					<path fill="#202020" d="M341.458,187.59c3.017-0.706,5.016-1.277,8.224-2.901c18.312-9.393,110.032-56.431,110.032-56.431
						s85.389-43.793,102.438-52.537c3.192-1.657,4.822-2.948,7.154-4.984c-3.016,0.706-5.016,1.277-8.224,2.902
						c-17.05,8.744-102.438,52.537-102.438,52.537s-91.719,47.039-110.032,56.431C345.423,184.264,343.79,185.554,341.458,187.59z"
						/>
				</g>
			</g>
		</g>
		<g>
			<g>
				<g>
					<path fill="#202020" d="M25.978,349.387c0.748-3.003,1.15-5.043,1.17-8.639c0-22.543,0-135.454,0-135.454s0-104.96,0-125.917
						c-0.02-3.596-0.422-5.636-1.17-8.64c-0.748,3.004-1.152,5.044-1.17,8.64c0,20.957,0,125.917,0,125.917s0,112.91,0,135.454
						C24.826,344.343,25.23,346.383,25.978,349.387z"/>
				</g>
			</g>
		</g>
		<g>
			<g>
				<g>
					<path fill="#202020" d="M569.304,349.387c-3.004-0.748-5.044-1.152-8.642-1.17c-45.55,0-273.675,0-273.675,0
						s-210.368,0-252.372,0c-3.596,0.018-5.636,0.422-8.64,1.17c3.004,0.748,5.044,1.152,8.64,1.17c42.003,0,252.372,0,252.372,0
						s228.125,0,273.675,0C564.26,350.539,566.302,350.134,569.304,349.387z"/>
				</g>
			</g>
		</g>
		<g>
			<g>
				<g>
					<path fill="#202020" d="M569.304,70.737c-0.748,3.004-1.152,5.044-1.17,8.64c0,22.545,0,135.455,0,135.455s0,104.96,0,125.916
						c0.018,3.596,0.422,5.636,1.17,8.639c0.747-3.003,1.149-5.043,1.17-8.639c0-20.956,0-125.916,0-125.916s0-112.91,0-135.455
						C570.455,75.781,570.052,73.741,569.304,70.737z"/>
				</g>
			</g>
		</g>
		<g>
			<g>
				<g>
					<path fill="#202020" d="M25.977,70.737c3.004,0.748,5.044,1.152,8.64,1.17c45.549,0,273.675,0,273.675,0s210.368,0,252.372,0
						c3.598-0.018,5.638-0.422,8.642-1.17c-3.004-0.748-5.044-1.152-8.642-1.17c-42.004,0-252.372,0-252.372,0s-228.125,0-273.675,0
						C31.021,69.585,28.981,69.989,25.977,70.737z"/>
				</g>
			</g>
		</g>
		<g>
			<g>
				<g>
					<path fill="#202020" d="M25.979,349.387c3.015-0.706,5.014-1.276,8.222-2.901c18.313-9.392,110.032-56.431,110.032-56.431
						s85.389-43.793,102.438-52.538c3.191-1.657,4.822-2.948,7.154-4.984c-3.014,0.706-5.014,1.277-8.222,2.902
						c-17.05,8.744-102.439,52.538-102.439,52.538s-91.719,47.039-110.032,56.43C29.941,346.06,28.311,347.351,25.979,349.387z"/>
				</g>
			</g>
		</g>
		<g>
			<g>
				<g>
					<path fill="#202020" d="M253.826,187.592c-2.332-2.036-3.962-3.327-7.154-4.984c-18.312-9.393-110.031-56.432-110.031-56.432
						S51.249,82.383,34.199,73.638c-3.208-1.625-5.208-2.196-8.222-2.902c2.332,2.036,3.962,3.327,7.152,4.984
						c17.052,8.744,102.44,52.538,102.44,52.538s91.72,47.04,110.033,56.432C248.813,186.315,250.812,186.886,253.826,187.592z"/>
				</g>
			</g>
		</g>
		<g>
			<g>
				<g>
					<path fill="#202020" d="M569.304,349.387c-2.332-2.036-3.963-3.327-7.153-4.984c-18.312-9.392-110.033-56.431-110.033-56.431
						s-85.39-43.792-102.438-52.537c-3.208-1.625-5.207-2.196-8.223-2.901c2.331,2.036,3.963,3.327,7.153,4.984
						c17.049,8.744,102.438,52.537,102.438,52.537s91.72,47.039,110.033,56.431C564.29,348.11,566.289,348.681,569.304,349.387z"/>
				</g>
			</g>
		</g>
		<text transform="matrix(1 0 0 1 216.7864 221.0601)" font-family="'ComicSansMS'" font-size="29">HOME PAGE</text>
	</g>
	<g id="home_1_">
		<g>
			<polyline fill="#ED1F24" points="106.876,58.074 25.978,58.074 25.978,27.737 106.876,27.737 			"/>
		</g>
		<g>
			<line fill="none" x1="106.876" y1="58.074" x2="25.978" y2="58.074"/>
			<g>
				<g>
					<path fill="#FF4D4D" d="M106.876,58.074c-3.004-0.748-5.044-1.152-8.64-1.17c-0.609-0.001-1.603-0.003-3.66-0.007
						c-8.466,0.002-28.521,0.007-28.521,0.007s-16.788-0.005-26.097-0.008c-2.75,0.004-4.451,0.007-5.34,0.008
						c-3.596,0.018-5.636,0.422-8.64,1.17c3.004,0.748,5.044,1.152,8.64,1.17c0.889,0.001,2.59,0.004,5.34,0.008
						c9.309-0.003,26.097-0.008,26.097-0.008s20.057,0.005,28.521,0.007c2.062-0.004,3.051-0.005,3.66-0.007
						C101.832,59.226,103.872,58.821,106.876,58.074z"/>
				</g>
			</g>
		</g>
		<g>
			<line fill="none" x1="25.978" y1="27.737" x2="106.876" y2="27.737"/>
			<g>
				<g>
					<path fill="#FF4D4D" d="M25.978,27.737c3.004,0.748,5.044,1.152,8.64,1.17c0.609,0.001,1.603,0.003,3.66,0.007
						c8.466-0.002,28.521-0.007,28.521-0.007s16.788,0.005,26.097,0.008c2.75-0.004,4.451-0.007,5.34-0.008
						c3.596-0.018,5.636-0.422,8.64-1.17c-3.004-0.748-5.044-1.152-8.64-1.17c-0.889-0.001-2.59-0.004-5.34-0.008
						C83.588,26.562,66.8,26.567,66.8,26.567s-20.057-0.005-28.521-0.007c-2.062,0.004-3.051,0.005-3.66,0.007
						C31.022,26.585,28.982,26.989,25.978,27.737z"/>
				</g>
			</g>
		</g>
		<g>
			<line fill="none" x1="25.978" y1="58.074" x2="25.978" y2="27.737"/>
			<g>
				<g>
					<path fill="#FF4D4D" d="M25.978,58.074c0.748-3.004,1.15-5.044,1.17-8.64c0.001-0.61,0.003-1.601,0.007-3.66
						c-0.002-0.629-0.007-2.119-0.007-2.119s0.005-1.247,0.008-1.938c-0.004-2.75-0.007-4.451-0.008-5.34
						c-0.02-3.596-0.422-5.636-1.17-8.64c-0.748,3.004-1.152,5.044-1.17,8.64c-0.001,0.889-0.004,2.59-0.01,5.34
						c0.005,0.691,0.01,1.938,0.01,1.938s-0.005,1.49-0.009,2.119c0.006,2.06,0.007,3.05,0.009,3.66
						C24.826,53.03,25.23,55.069,25.978,58.074z"/>
				</g>
			</g>
		</g>
		<g>
			<line fill="none" x1="106.876" y1="27.737" x2="106.876" y2="58.074"/>
			<g>
				<g>
					<path fill="#FF4D4D" d="M106.876,27.737c-0.748,3.004-1.15,5.044-1.17,8.64c-0.001,0.61-0.003,1.601-0.007,3.66
						c0.002,0.629,0.007,2.119,0.007,2.119s-0.005,1.247-0.008,1.938c0.004,2.75,0.007,4.451,0.008,5.34
						c0.02,3.596,0.422,5.636,1.17,8.64c0.748-3.004,1.152-5.044,1.17-8.64c0.001-0.889,0.004-2.59,0.01-5.34
						c-0.005-0.691-0.01-1.938-0.01-1.938s0.005-1.49,0.009-2.119c-0.006-2.06-0.007-3.05-0.009-3.66
						C108.028,32.781,107.624,30.741,106.876,27.737z"/>
				</g>
			</g>
		</g>
		<text transform="matrix(1 0 0 1 43.3752 47.3062)" fill="#FFFFFF" font-family="'ComicSansMS-Bold'" font-size="15">HOME</text>
	</g>
	<g id="about_5_">
		<g>
			<rect x="114.504" y="27.737" width="80.897" height="30.337"/>
		</g>
		<g>
			<line fill="none" x1="195.402" y1="27.737" x2="195.402" y2="58.074"/>
			<g>
				<g>
					<path fill="#202020" d="M195.402,27.737c-0.748,3.004-1.152,5.044-1.17,8.64c-0.001,0.61-0.003,1.601-0.007,3.66
						c0.002,0.629,0.007,2.119,0.007,2.119s-0.005,1.247-0.008,1.938c0.004,2.75,0.007,4.451,0.008,5.34
						c0.018,3.596,0.422,5.636,1.17,8.64c0.748-3.004,1.152-5.044,1.17-8.64c0.001-0.889,0.004-2.59,0.008-5.34
						c-0.003-0.691-0.008-1.938-0.008-1.938s0.005-1.49,0.007-2.119c-0.004-2.06-0.005-3.05-0.007-3.66
						C196.553,32.781,196.149,30.741,195.402,27.737z"/>
				</g>
			</g>
		</g>
		<g>
			<line fill="none" x1="195.402" y1="58.074" x2="114.504" y2="58.074"/>
			<g>
				<g>
					<path fill="#202020" d="M195.402,58.074c-3.004-0.748-5.044-1.152-8.64-1.17c-0.609-0.001-1.603-0.003-3.66-0.007
						c-8.466,0.002-28.523,0.007-28.523,0.007s-16.788-0.005-26.095-0.008c-2.75,0.004-4.451,0.007-5.34,0.008
						c-3.598,0.018-5.638,0.422-8.642,1.17c3.004,0.748,5.044,1.152,8.642,1.17c0.889,0.001,2.59,0.004,5.34,0.008
						c9.307-0.003,26.095-0.008,26.095-0.008s20.059,0.005,28.523,0.007c2.06-0.004,3.051-0.005,3.66-0.007
						C190.358,59.226,192.397,58.821,195.402,58.074z"/>
				</g>
			</g>
		</g>
		<g>
			<line fill="none" x1="114.504" y1="58.074" x2="114.504" y2="27.737"/>
			<g>
				<g>
					<path fill="#202020" d="M114.504,58.074c0.748-3.004,1.152-5.044,1.17-8.64c0.001-0.61,0.003-1.601,0.009-3.66
						c-0.002-0.629-0.009-2.119-0.009-2.119s0.007-1.247,0.01-1.938c-0.004-2.75-0.009-4.451-0.01-5.34
						c-0.018-3.596-0.422-5.636-1.17-8.64c-0.748,3.004-1.15,5.044-1.17,8.64c-0.001,0.889-0.004,2.59-0.008,5.34
						c0.003,0.691,0.008,1.938,0.008,1.938s-0.005,1.49-0.007,2.119c0.004,2.06,0.005,3.05,0.007,3.66
						C113.352,53.03,113.757,55.069,114.504,58.074z"/>
				</g>
			</g>
		</g>
		<g>
			<line fill="none" x1="114.504" y1="27.737" x2="195.402" y2="27.737"/>
			<g>
				<g>
					<path fill="#202020" d="M114.504,27.737c3.004,0.748,5.044,1.152,8.642,1.17c0.607,0.001,1.601,0.003,3.66,0.007
						c8.466-0.002,28.521-0.007,28.521-0.007s16.788,0.005,26.095,0.008c2.75-0.004,4.451-0.007,5.342-0.008
						c3.596-0.018,5.636-0.422,8.64-1.17c-3.004-0.748-5.044-1.152-8.64-1.17c-0.891-0.001-2.592-0.004-5.342-0.008
						c-9.307,0.003-26.095,0.008-26.095,0.008s-20.057-0.005-28.521-0.007c-2.062,0.004-3.053,0.005-3.66,0.007
						C119.548,26.585,117.509,26.989,114.504,27.737z"/>
				</g>
			</g>
		</g>
		<text transform="matrix(1 0 0 1 128.0081 47.3062)" fill="#FFFFFF" font-family="'ComicSansMS-Bold'" font-size="15">ABOUT</text>
	</g>
	<g id="work_5_">
		<g>
			<rect x="203.03" y="27.737" width="80.898" height="30.337"/>
		</g>
		<g>
			<line fill="none" x1="283.928" y1="27.737" x2="283.928" y2="58.074"/>
			<g>
				<g>
					<path fill="#202020" d="M283.928,27.737c-0.748,3.004-1.152,5.044-1.172,8.64c-0.001,0.61-0.003,1.601-0.007,3.66
						c0.002,0.629,0.007,2.119,0.007,2.119s-0.005,1.247-0.008,1.938c0.004,2.75,0.007,4.451,0.008,5.34
						c0.02,3.596,0.424,5.636,1.172,8.64c0.746-3.004,1.15-5.044,1.17-8.64c0.001-0.889,0.004-2.59,0.008-5.34
						c-0.003-0.691-0.008-1.938-0.008-1.938s0.005-1.49,0.007-2.119c-0.004-2.06-0.005-3.05-0.007-3.66
						C285.08,32.781,284.676,30.741,283.928,27.737z"/>
				</g>
			</g>
		</g>
		<g>
			<line fill="none" x1="283.928" y1="58.074" x2="203.03" y2="58.074"/>
			<g>
				<g>
					<path fill="#202020" d="M283.928,58.074c-3.006-0.748-5.046-1.152-8.642-1.17c-0.607-0.001-1.601-0.003-3.66-0.007
						c-8.466,0.002-28.521,0.007-28.521,0.007s-16.788-0.005-26.097-0.008c-2.75,0.004-4.449,0.007-5.34,0.008
						c-3.596,0.018-5.636,0.422-8.64,1.17c3.004,0.748,5.044,1.152,8.64,1.17c0.891,0.001,2.59,0.004,5.34,0.008
						c9.309-0.003,26.097-0.008,26.097-0.008s20.057,0.005,28.521,0.007c2.062-0.004,3.053-0.005,3.66-0.007
						C278.884,59.226,280.924,58.821,283.928,58.074z"/>
				</g>
			</g>
		</g>
		<g>
			<line fill="none" x1="203.03" y1="58.074" x2="203.03" y2="27.737"/>
			<g>
				<g>
					<path fill="#202020" d="M203.03,58.074c0.748-3.004,1.152-5.044,1.17-8.64c0.001-0.61,0.003-1.601,0.007-3.66
						c-0.002-0.629-0.007-2.119-0.007-2.119s0.005-1.247,0.008-1.938c-0.004-2.75-0.007-4.451-0.008-5.34
						c-0.018-3.596-0.422-5.636-1.17-8.64c-0.748,3.004-1.152,5.044-1.17,8.64c-0.001,0.889-0.004,2.59-0.008,5.34
						c0.003,0.691,0.008,1.938,0.008,1.938s-0.005,1.49-0.007,2.119c0.004,2.06,0.005,3.05,0.007,3.66
						C201.878,53.03,202.282,55.069,203.03,58.074z"/>
				</g>
			</g>
		</g>
		<g>
			<line fill="none" x1="203.03" y1="27.737" x2="283.928" y2="27.737"/>
			<g>
				<g>
					<path fill="#202020" d="M203.03,27.737c3.004,0.748,5.044,1.152,8.64,1.17c0.609,0.001,1.603,0.003,3.66,0.007
						c8.466-0.002,28.523-0.007,28.523-0.007s16.788,0.005,26.095,0.008c2.75-0.004,4.451-0.007,5.34-0.008
						c3.596-0.018,5.636-0.422,8.642-1.17c-3.006-0.748-5.046-1.152-8.642-1.17c-0.889-0.001-2.59-0.004-5.34-0.008
						c-9.307,0.003-26.095,0.008-26.095,0.008s-20.059-0.005-28.523-0.007c-2.06,0.004-3.051,0.005-3.66,0.007
						C208.073,26.585,206.034,26.989,203.03,27.737z"/>
				</g>
			</g>
		</g>
		<text transform="matrix(1 0 0 1 220.3127 47.3062)" fill="#FFFFFF" font-family="'ComicSansMS-Bold'" font-size="15">WORK</text>
	</g>
	<g id="email_5_">
		<g>
			<rect x="291.557" y="27.737" width="80.896" height="30.337"/>
		</g>
		<g>
			<line fill="none" x1="291.557" y1="58.074" x2="291.557" y2="27.737"/>
			<g>
				<g>
					<path fill="#202020" d="M291.557,58.074c0.748-3.004,1.15-5.044,1.17-8.64c0.001-0.61,0.003-1.601,0.007-3.66
						c-0.002-0.629-0.007-2.119-0.007-2.119s0.005-1.247,0.008-1.938c-0.004-2.75-0.007-4.451-0.008-5.34
						c-0.02-3.596-0.422-5.636-1.17-8.64c-0.748,3.004-1.152,5.044-1.17,8.64c-0.001,0.889-0.006,2.59-0.01,5.34
						c0.003,0.691,0.01,1.938,0.01,1.938s-0.007,1.49-0.009,2.119c0.004,2.06,0.007,3.05,0.009,3.66
						C290.405,53.03,290.809,55.069,291.557,58.074z"/>
				</g>
			</g>
		</g>
		<g>
			<line fill="none" x1="372.454" y1="27.737" x2="372.454" y2="58.074"/>
			<g>
				<g>
					<path fill="#202020" d="M372.454,27.737c-0.748,3.004-1.15,5.044-1.17,8.64c-0.001,0.61-0.003,1.601-0.007,3.66
						c0.002,0.629,0.007,2.119,0.007,2.119s-0.005,1.247-0.008,1.938c0.004,2.75,0.006,4.451,0.008,5.34
						c0.02,3.596,0.422,5.636,1.17,8.64c0.747-3.004,1.151-5.044,1.17-8.64c0.004-0.889,0.006-2.59,0.01-5.34
						c-0.003-0.691-0.01-1.938-0.01-1.938s0.007-1.49,0.009-2.119c-0.004-2.06-0.006-3.05-0.009-3.66
						C373.606,32.781,373.201,30.741,372.454,27.737z"/>
				</g>
			</g>
		</g>
		<g>
			<line fill="none" x1="372.454" y1="58.074" x2="291.557" y2="58.074"/>
			<g>
				<g>
					<path fill="#202020" d="M372.454,58.074c-3.004-0.748-5.044-1.152-8.64-1.17c-0.609-0.001-1.601-0.003-3.66-0.007
						c-8.466,0.002-28.521,0.007-28.521,0.007s-16.788-0.005-26.097-0.008c-2.75,0.004-4.452,0.007-5.341,0.008
						c-3.596,0.018-5.636,0.422-8.64,1.17c3.004,0.748,5.044,1.152,8.64,1.17c0.889,0.001,2.591,0.004,5.341,0.008
						c9.309-0.003,26.097-0.008,26.097-0.008s20.057,0.005,28.521,0.007c2.062-0.004,3.051-0.005,3.66-0.007
						C367.41,59.226,369.45,58.821,372.454,58.074z"/>
				</g>
			</g>
		</g>
		<g>
			<line fill="none" x1="291.557" y1="27.737" x2="372.454" y2="27.737"/>
			<g>
				<g>
					<path fill="#202020" d="M291.557,27.737c3.004,0.748,5.044,1.152,8.64,1.17c0.609,0.001,1.601,0.003,3.66,0.007
						c8.467-0.002,28.522-0.007,28.522-0.007s16.788,0.005,26.095,0.008c2.75-0.004,4.452-0.007,5.341-0.008
						c3.596-0.018,5.636-0.422,8.64-1.17c-3.004-0.748-5.044-1.152-8.64-1.17c-0.889-0.001-2.591-0.004-5.341-0.008
						c-9.307,0.003-26.095,0.008-26.095,0.008s-20.058-0.005-28.522-0.007c-2.062,0.004-3.051,0.005-3.66,0.007
						C296.601,26.585,294.561,26.989,291.557,27.737z"/>
				</g>
			</g>
		</g>
		<text transform="matrix(1 0 0 1 306.9871 47.3062)" fill="#FFFFFF" font-family="'ComicSansMS-Bold'" font-size="15">EMAIL</text>
	</g>
</g>
</svg>
